<svg width="314" height="165" viewBox="0 0 314 165" fill="none" xmlns="http://www.w3.org/2000/svg">
<path d="M128.926 0.0645093C128.184 0.239127 126.613 0.937598 125.434 1.63607C124.212 2.33454 123.077 2.90205 122.815 2.90205C122.596 2.90205 122.378 3.07666 122.378 3.33859C122.335 4.03706 116.659 9.27559 116.31 8.8827C116.136 8.70808 116.048 8.75174 116.092 9.01366C116.31 9.71213 115.175 11.4583 114.695 11.1964C114.477 11.0218 114.302 11.1964 114.302 11.5456C114.302 11.8949 113.735 12.8116 113.036 13.5537C112.338 14.2958 111.857 14.907 111.988 14.907C112.119 14.907 111.639 15.5618 110.984 16.3039C110.33 17.0897 109.675 17.7445 109.456 17.7445C109.282 17.7445 108.976 17.9192 108.758 18.1374C108.54 18.3557 108.627 18.3994 108.976 18.2247C109.849 17.7009 109.544 18.5303 108.147 20.3638C107.448 21.3242 106.619 22.11 106.313 22.11C106.008 22.11 105.833 22.4156 105.877 22.7648C106.051 23.9871 98.3683 33.6784 97.2332 33.6784C97.015 33.6784 96.8403 33.9403 96.8403 34.2896C96.8403 34.988 95.6617 35.5992 94.4394 35.5119C93.6099 35.4246 93.6099 35.4682 94.3957 35.7738C95.1378 36.1231 95.0942 36.254 93.7409 37.1708C92.9115 37.7383 92.1693 38.3494 92.0384 38.524C91.5582 39.1352 89.812 39.8337 89.4191 39.5717C89.1572 39.3971 89.0262 39.5281 89.0699 39.8337C89.1572 40.1393 87.9348 40.8377 86.145 41.4925C83.4384 42.4529 82.4344 42.5839 77.6324 42.5839C73.1797 42.5402 71.6518 42.3656 69.3381 41.5362C65.3219 40.1829 61.9168 38.4367 62.2224 37.9129C62.3534 37.651 62.2661 37.6073 61.9605 37.7819C61.3057 38.2185 57.0275 35.0753 57.4204 34.4642C57.5514 34.2023 57.5077 34.1149 57.2458 34.2459C56.6783 34.5951 54.321 32.5434 54.6702 31.9759C54.8448 31.7576 54.7138 31.4084 54.4519 31.2338C54.1027 31.0591 54.059 31.1028 54.2336 31.4084C54.9321 32.5434 53.8844 31.8449 52.2692 30.0551C50.7413 28.3962 50.0428 27.1739 50.9159 27.7414C51.1342 27.8724 51.3088 27.6977 51.3088 27.3485C51.3088 26.912 51.1342 26.8247 50.7849 27.1302C50.1301 27.6977 48.6022 26.0825 49.0824 25.3404C49.257 25.0348 49.2134 24.9039 48.9515 25.0785C48.6895 25.2531 48.1657 24.9912 47.7291 24.511C47.2926 24.0308 47.0743 23.6379 47.2489 23.6379C47.4236 23.6379 47.2489 23.3323 46.8997 22.9394C46.5068 22.5902 46.3322 22.0227 46.5068 21.7608C46.6378 21.4552 46.6378 21.3679 46.4195 21.5425C46.2449 21.7171 45.4591 21.0623 44.7606 20.1019C43.6693 18.6176 43.5383 18.2247 44.0622 17.8755C44.586 17.5263 44.586 17.4826 44.0185 17.6572C43.4074 17.8319 39.3475 14.5578 39.5221 14.0339C39.5658 13.903 39.1729 13.772 38.649 13.772C38.1252 13.7283 36.51 13.4664 35.113 13.2045C33.1922 12.7679 32.0572 12.7679 30.6166 13.1608C29.5253 13.4228 28.2156 13.5101 27.7354 13.3791C27.0806 13.2045 26.9496 13.2481 27.3425 13.5101C27.7354 13.772 27.3862 14.1212 26.0766 14.6887C23.3263 15.9547 20.3578 19.578 18.7426 23.6815C18.0005 25.6023 17.3893 27.5231 17.3893 27.916C17.3893 28.5708 17.302 28.5708 16.9091 28.0033C16.5599 27.4795 16.4726 27.5668 16.6909 28.4399C16.8218 29.0074 16.4726 31.3647 15.8614 33.6784C15.2939 35.9484 14.5954 38.9606 14.3335 40.3575C14.0716 41.7108 13.6787 42.7585 13.4604 42.6276C13.2858 42.4966 13.1985 42.7585 13.2858 43.1951C13.4168 43.588 12.8929 47.2113 12.1508 51.1402C9.88077 63.2761 8.87672 71.4831 8.39652 81.9165C7.95998 90.8657 7.95998 92.1317 8.26556 91.957C8.78941 91.6078 9.09499 107.585 8.65845 110.51C8.09094 114.046 6.99958 117.495 6.43207 117.495C6.17015 117.495 6.08284 117.669 6.25745 117.888C6.38842 118.106 6.17015 119.023 5.7336 119.852C5.20975 120.987 4.90417 121.293 4.59859 120.9C4.33666 120.507 4.29301 120.551 4.46762 121.118C4.59859 121.555 3.98743 123.301 2.98337 125.265C2.02298 127.099 1.2372 128.889 1.2372 129.194C1.2372 129.5 1.10624 129.674 0.931618 129.587C0.538728 129.325 0.495074 129.631 0.102184 135.48C-0.116088 139.104 -0.0287791 140.152 0.800655 142.902C1.32451 144.648 2.24125 146.874 2.85241 147.835C3.50723 148.795 3.98743 149.799 3.98743 150.105C3.98743 150.41 4.07473 150.585 4.2057 150.454C4.55493 150.105 6.25745 152.593 6.17015 153.291C6.08284 153.728 6.12649 153.772 6.30111 153.379C6.51938 152.942 6.73765 152.942 7.39247 153.553C7.82901 153.946 8.09094 154.47 7.91632 154.732C7.78536 154.994 7.87267 155.038 8.17825 154.863C8.44018 154.688 9.40057 155.125 10.4046 155.911C12.0198 157.22 18.1751 160.276 19.0919 160.276C19.3538 160.276 19.572 160.582 19.572 160.931C19.572 161.28 19.7903 161.586 20.0522 161.586C20.2705 161.586 20.3578 161.368 20.1832 161.106C20.0086 160.756 20.2269 160.713 20.9253 160.975C21.4928 161.149 23.239 161.629 24.8106 162.022C26.6877 162.503 27.3425 162.852 26.775 162.983C26.2948 163.114 26.906 163.201 28.0847 163.201C32.712 163.157 40.9191 163.899 40.6571 164.336C40.5262 164.598 40.6135 164.642 40.8754 164.467C41.1373 164.336 77.938 164.205 122.684 164.205C243.126 164.249 239.678 164.249 247.142 163.55C257.881 162.459 265.958 160.756 273.903 157.832C276.26 156.958 278.879 156.26 279.665 156.26C280.407 156.26 281.062 156.129 281.062 155.911C281.062 155.692 280.713 155.605 280.32 155.736C279.883 155.867 280.931 155.212 282.59 154.339C284.292 153.422 286.126 152.68 286.737 152.68C287.348 152.637 287.828 152.418 287.828 152.113C287.828 151.545 295.468 146.089 295.468 146.612C295.468 146.831 295.73 146.481 296.035 145.914C296.297 145.303 296.821 144.779 297.17 144.648C297.563 144.517 297.651 144.648 297.432 144.997C297.17 145.39 297.258 145.477 297.607 145.259C297.913 145.041 298.043 144.779 297.913 144.648C297.52 144.255 298.567 143.251 299.091 143.557C299.309 143.688 299.397 143.644 299.266 143.382C299.135 143.164 299.702 142.203 300.532 141.243C301.361 140.326 302.54 138.886 303.195 138.143C303.806 137.358 304.461 136.79 304.635 136.921C304.854 137.052 305.159 136.921 305.334 136.659C305.552 136.31 305.465 136.266 305.072 136.485C304.723 136.703 304.592 136.615 304.723 136.223C304.854 135.873 305.203 135.655 305.465 135.742C305.77 135.786 305.858 135.655 305.727 135.393C305.552 135.131 305.727 134.564 306.076 134.171C306.949 133.21 311.62 123.606 311.62 122.733C311.62 122.21 311.707 122.21 311.969 122.646C312.188 122.995 312.318 122.646 312.318 121.773C312.318 120.987 312.668 118.674 313.104 116.709C313.803 113.566 313.846 112.562 313.41 109.724C313.148 107.847 312.406 105.272 311.751 103.962C311.096 102.652 310.616 101.43 310.66 101.212C310.703 101.037 310.485 100.906 310.179 100.863C309.917 100.863 309.175 100.251 308.608 99.5092L307.517 98.156L308.608 98.7235C309.263 99.0727 309.481 99.0727 309.175 98.7671C308.913 98.5052 308.346 98.1996 307.866 98.1123C306.862 97.894 302.191 94.7946 302.322 94.4017C302.365 94.2271 302.06 94.0961 301.667 94.0524C300.444 93.9651 290.971 90.5601 291.364 90.3418C291.583 90.2109 291.495 90.2109 291.19 90.2982C290.098 90.5601 287.174 89.9053 287.479 89.4251C287.654 89.1632 287.523 89.1195 287.217 89.2941C286.431 89.7743 281.018 88.683 281.368 88.1154C281.542 87.8099 281.368 87.7662 280.887 87.9408C279.883 88.3337 274.514 87.417 274.514 86.8495C274.514 86.6312 274.296 86.5875 274.077 86.7185C273.379 87.155 260.021 83.75 260.675 83.3135C260.981 83.0952 260.85 83.0515 260.239 83.2262C258.536 83.7064 229.812 74.5826 230.597 73.7968C230.685 73.7095 230.336 73.5785 229.812 73.5785C229.288 73.5349 226.276 72.4435 223.176 71.1339C220.077 69.7806 217.108 68.6019 216.584 68.4273C215.93 68.209 215.711 67.8598 215.842 67.3796C216.061 66.7248 216.061 66.6811 215.624 67.336C215.362 67.7288 214.664 68.209 214.052 68.34C213.485 68.471 212.263 69.1258 211.346 69.6933C210.473 70.3045 209.469 70.6973 209.163 70.5664C208.814 70.4791 208.639 70.5227 208.77 70.741C208.989 71.0902 205.933 73.4039 205.278 73.4039C205.147 73.4039 204.448 73.7968 203.75 74.3207C203.052 74.8009 202.266 75.0628 201.96 74.8882C201.655 74.7135 201.524 74.7135 201.698 74.9318C202.178 75.412 200.432 76.5907 199.777 76.1978C199.516 76.0232 199.428 76.0668 199.559 76.3288C199.908 76.8963 197.376 78.3369 196.722 77.944C196.416 77.7694 196.372 77.813 196.547 78.1186C196.853 78.6424 188.646 83.7064 188.209 83.2698C188.034 83.1388 187.642 83.4008 187.292 83.9246C186.812 84.6231 186.332 84.7541 185.11 84.6231C184.106 84.5358 183.538 84.2302 183.625 83.9246C183.669 83.619 183.538 83.4881 183.363 83.619C182.796 83.9683 181.661 82.5713 181.312 81.218C180.831 79.3846 182.054 77.6384 185.11 75.8049C186.637 74.8882 188.078 74.146 188.384 74.146C188.689 74.146 188.82 73.9714 188.689 73.7968C188.427 73.3603 190.741 72.1379 191.439 72.3999C191.701 72.4872 192.094 72.3562 192.269 72.0506C192.443 71.7014 192.4 71.6577 192.094 71.8324C191.789 72.007 191.57 72.0506 191.57 71.9197C191.57 71.3958 198.38 67.2923 198.904 67.5106C199.21 67.6415 199.385 67.5542 199.254 67.336C199.123 67.1177 199.996 66.3319 201.174 65.5461C202.397 64.7603 203.575 63.7563 203.837 63.3197C204.274 62.4903 204.274 59.4345 203.837 59.5655C203.182 59.7401 199.952 57.9066 200.17 57.5574C200.301 57.2954 200.214 57.2518 199.952 57.4264C199.297 57.8193 192.836 54.6325 193.186 54.065C193.317 53.8031 193.229 53.7594 192.967 53.934C192.705 54.1087 192.007 54.0214 191.483 53.7158C190.959 53.4102 189.824 53.0173 188.951 52.8427C187.554 52.4935 187.03 52.7117 182.665 55.3746C178.867 57.6883 177.863 58.1249 177.514 57.6447C177.164 57.1645 177.121 57.2081 177.339 57.7756C177.47 58.2995 177.121 58.7797 176.117 59.3909C174.589 60.3512 173.89 60.5695 174.283 59.9584C174.414 59.7401 174.24 59.5655 173.89 59.5655C173.454 59.5655 173.367 59.7401 173.672 60.0893C174.371 60.9188 162.235 67.9035 160.227 67.8598C156.996 67.7725 155.163 63.538 157.302 61.1807C158.611 59.7401 161.405 58.0376 161.973 58.3868C162.235 58.5614 162.322 58.5178 162.191 58.2558C161.885 57.7756 162.977 56.9899 169.656 52.799C171.926 51.4021 173.934 50.398 174.196 50.529C174.458 50.7036 174.545 50.6163 174.371 50.3544C173.934 49.6559 175.025 49.1757 175.506 49.8742C175.811 50.398 175.855 50.3544 175.768 49.8305C175.68 49.1321 178.867 45.6397 179.478 45.8143C180.177 46.0326 179.696 45.2905 177.819 43.457C176.728 42.4093 175.637 41.5362 175.375 41.5362C175.113 41.5362 175.069 41.3179 175.2 41.0997C175.375 40.8377 175.331 40.7068 175.113 40.7504C174.676 40.925 172.319 39.0916 172.581 38.8296C172.712 38.6987 172.537 38.6114 172.232 38.6114C171.926 38.6114 170.485 37.8256 169.045 36.8215C165.334 34.2023 164.199 33.984 161.449 35.25C160.183 35.8175 159.004 36.2104 158.83 36.0794C158.611 35.9484 158.306 36.0794 158.131 36.3413C157.957 36.6906 158 36.7342 158.306 36.5596C158.611 36.385 158.83 36.3413 158.83 36.4286C158.83 36.6469 155.861 38.4804 155.512 38.4804C155.381 38.4804 155.425 38.2621 155.599 37.9565C155.774 37.651 155.73 37.6073 155.381 37.7819C155.119 37.9565 155.032 38.3058 155.163 38.5677C155.381 38.8733 155.206 38.9606 154.77 38.786C154.377 38.655 153.94 38.7423 153.766 39.0042C153.547 39.3098 153.678 39.3535 154.071 39.1352C154.595 38.8296 154.595 38.9169 154.115 39.3971C153.635 39.921 153.504 39.921 153.111 39.3535C152.718 38.786 152.674 38.786 152.849 39.3971C153.024 39.9646 151.889 40.8377 148.309 43.0204C145.69 44.6357 143.332 45.8143 143.114 45.6834C142.896 45.5524 142.59 45.6834 142.416 45.9453C142.241 46.2945 142.285 46.3382 142.59 46.1636C142.896 45.9889 143.114 45.9453 143.114 46.0763C143.114 46.6001 139.229 48.5209 138.618 48.3026C138.268 48.128 137.832 48.259 137.614 48.5646C137.395 48.9574 137.526 49.0011 138.137 48.8265C138.923 48.5209 138.923 48.5209 138.137 49.1757C137.177 49.9178 136.391 50.0488 136.784 49.394C136.915 49.1321 136.653 48.9574 136.173 48.9574C135.649 48.9574 135.256 49.1321 135.256 49.394C135.256 50.1798 133.597 49.8742 132.419 48.8265C131.589 48.128 131.24 47.4295 131.24 46.3382C131.196 43.9372 131.284 43.6316 131.851 43.9808C132.113 44.1555 132.2 44.1118 132.026 43.8062C131.502 42.9331 136.566 39.0479 137.526 39.6154C137.832 39.79 137.875 39.7464 137.701 39.4408C137.395 38.9169 140.364 36.8215 141.062 37.0834C141.237 37.1271 141.368 36.9961 141.368 36.7779C141.368 36.5596 143.594 34.9444 146.301 33.2419C152.15 29.4439 152.98 28.7018 154.071 26.6064C155.73 23.3323 155.119 21.4115 150.841 16.8278C149.488 15.3436 148.527 13.9903 148.702 13.772C148.876 13.5537 148.833 13.5101 148.614 13.6847C148.134 14.0776 141.324 7.48576 141.63 6.96191C141.761 6.74363 141.673 6.65633 141.455 6.69998C141.237 6.78729 139.709 5.65227 138.094 4.21168C136.479 2.77108 134.82 1.4178 134.47 1.19952C133.03 0.37009 130.192 -0.197417 128.926 0.0645093Z" fill="#183153"/>
</svg>
